<svg width="77" height="88" viewBox="0 0 77 88" fill="none" xmlns="http://www.w3.org/2000/svg">
<rect width="11" height="11" transform="matrix(-1 0 0 1 33 22)" fill="white"/>
<rect width="11" height="11" transform="matrix(-1 0 0 1 44 22)" fill="white"/>
<rect width="11" height="11" transform="matrix(-1 0 0 1 55 22)" fill="white"/>
<rect width="11" height="11" transform="matrix(-1 0 0 1 66 33)" fill="white"/>
<rect width="11" height="11" transform="matrix(-1 0 0 1 77 33)" fill="white"/>
<rect width="11" height="11" transform="matrix(-1 0 0 1 77 44)" fill="#D9D9D9"/>
<rect width="11" height="11" transform="matrix(-1 0 0 1 66 44)" fill="#D9D9D9"/>
<rect width="11" height="11" transform="matrix(-1 0 0 1 55 55)" fill="#D9D9D9"/>
<rect width="11" height="11" transform="matrix(-1 0 0 1 44 55)" fill="white"/>
<rect width="11" height="11" transform="matrix(-1 0 0 1 44 66)" fill="#D9D9D9"/>
<rect width="11" height="11" transform="matrix(-1 0 0 1 33 66)" fill="#D9D9D9"/>
<rect width="11" height="11" transform="matrix(-1 0 0 1 11 77)" fill="white"/>
<rect width="11" height="11" transform="matrix(-1 0 0 1 22 77)" fill="#D9D9D9"/>
<rect width="11" height="66" transform="matrix(-1 0 0 1 22 11)" fill="white"/>
<rect width="11" height="66" transform="matrix(-1 0 0 1 11 11)" fill="white"/>
<rect width="11" height="11" transform="matrix(-1 0 0 1 33 44)" fill="white"/>
<rect width="11" height="11" transform="matrix(-1 0 0 1 33 33)" fill="white"/>
<rect width="11" height="11" transform="matrix(-1 0 0 1 44 33)" fill="white"/>
<rect width="11" height="11" transform="matrix(-1 0 0 1 44 44)" fill="white"/>
<rect width="11" height="11" transform="matrix(-1 0 0 1 33 55)" fill="white"/>
<rect width="11" height="11" transform="matrix(-1 0 0 1 33 11)" fill="white"/>
<rect width="11" height="11" transform="matrix(-1 0 0 1 44 11)" fill="white"/>
<rect width="11" height="11" transform="matrix(-1 0 0 1 22 0)" fill="white"/>
<rect width="11" height="11" transform="matrix(-1 0 0 1 11 0)" fill="white"/>
<rect width="11" height="11" transform="matrix(-1 0 0 1 55 44)" fill="white"/>
<rect width="11" height="11" transform="matrix(-1 0 0 1 55 33)" fill="white"/>
</svg>
